<svg xmlns="http://www.w3.org/2000/svg" xmlns:xlink="http://www.w3.org/1999/xlink" version="1.1" width="256" height="256" viewBox="0 0 256 256" xml:space="preserve">

<defs>
</defs>
<g style="stroke: none; stroke-width: 0; stroke-dasharray: none; stroke-linecap: butt; stroke-linejoin: miter; stroke-miterlimit: 10; fill: none; fill-rule: nonzero; opacity: 1;" transform="translate(1.4065934065934016 1.4065934065934016) scale(2.81 2.81)" >
	<path d="M 87 38.332 H 3 c -1.657 0 -3 -1.343 -3 -3 V 19.808 c 0 -1.657 1.343 -3 3 -3 h 84 c 1.657 0 3 1.343 3 3 v 15.524 C 90 36.989 88.657 38.332 87 38.332 z M 6 32.332 h 78 v -9.524 H 6 V 32.332 z" style="stroke: none; stroke-width: 1; stroke-dasharray: none; stroke-linecap: butt; stroke-linejoin: miter; stroke-miterlimit: 10; fill: rgb(0,0,0); fill-rule: nonzero; opacity: 1;" transform=" matrix(1 0 0 1 0 0) " stroke-linecap="round" />
	<path d="M 80.998 86.933 H 9.002 c -1.657 0 -3 -1.343 -3 -3 V 35.332 c 0 -1.657 1.343 -3 3 -3 h 71.996 c 1.657 0 3 1.343 3 3 v 48.601 C 83.998 85.59 82.655 86.933 80.998 86.933 z M 12.002 80.933 h 65.996 V 38.332 H 12.002 V 80.933 z" style="stroke: none; stroke-width: 1; stroke-dasharray: none; stroke-linecap: butt; stroke-linejoin: miter; stroke-miterlimit: 10; fill: rgb(0,0,0); fill-rule: nonzero; opacity: 1;" transform=" matrix(1 0 0 1 0 0) " stroke-linecap="round" />
	<path d="M 63.61 22.808 H 45 c -1.256 0 -2.38 -0.783 -2.814 -1.962 c -0.435 -1.179 -0.089 -2.504 0.867 -3.32 L 57.206 5.442 c 2.963 -2.528 7 -3.084 10.534 -1.456 c 3.536 1.631 5.733 5.063 5.733 8.958 C 73.474 18.383 69.049 22.808 63.61 22.808 z M 53.135 16.808 H 63.61 c 2.13 0 3.863 -1.733 3.863 -3.864 c 0 -1.549 -0.84 -2.86 -2.246 -3.509 s -2.947 -0.434 -4.125 0.57 L 53.135 16.808 z" style="stroke: none; stroke-width: 1; stroke-dasharray: none; stroke-linecap: butt; stroke-linejoin: miter; stroke-miterlimit: 10; fill: rgb(0,0,0); fill-rule: nonzero; opacity: 1;" transform=" matrix(1 0 0 1 0 0) " stroke-linecap="round" />
	<path d="M 45 22.808 H 26.39 c -5.439 0 -9.864 -4.425 -9.864 -9.864 c 0 -3.894 2.197 -7.326 5.733 -8.957 c 3.535 -1.631 7.573 -1.073 10.535 1.455 l 14.154 12.084 c 0.955 0.816 1.301 2.141 0.866 3.32 S 46.257 22.808 45 22.808 z M 26.416 9.066 c -0.549 0 -1.107 0.122 -1.645 0.37 c -1.406 0.649 -2.246 1.96 -2.246 3.509 c 0 2.13 1.733 3.864 3.864 3.864 h 10.476 l -7.967 -6.802 C 28.171 9.385 27.304 9.066 26.416 9.066 z" style="stroke: none; stroke-width: 1; stroke-dasharray: none; stroke-linecap: butt; stroke-linejoin: miter; stroke-miterlimit: 10; fill: rgb(0,0,0); fill-rule: nonzero; opacity: 1;" transform=" matrix(1 0 0 1 0 0) " stroke-linecap="round" />
	<path d="M 45 86.933 c -1.657 0 -3 -1.343 -3 -3 v -64.68 c 0 -1.657 1.343 -3 3 -3 c 1.657 0 3 1.343 3 3 v 64.68 C 48 85.59 46.657 86.933 45 86.933 z" style="stroke: none; stroke-width: 1; stroke-dasharray: none; stroke-linecap: butt; stroke-linejoin: miter; stroke-miterlimit: 10; fill: rgb(0,0,0); fill-rule: nonzero; opacity: 1;" transform=" matrix(1 0 0 1 0 0) " stroke-linecap="round" />
</g>
</svg>